<svg version="1.1" id="Uploaded to svgrepo.com" xmlns="http://www.w3.org/2000/svg" xmlns:xlink="http://www.w3.org/1999/xlink" viewBox="-3.2 -3.2 38.40 38.40" xml:space="preserve" fill="#000000"><g id="SVGRepo_bgCarrier" stroke-width="0"><path transform="translate(-3.2, -3.2), scale(2.4)" fill="#7a9ca8" d="M9.166.33a2.25 2.25 0 00-2.332 0l-5.25 3.182A2.25 2.25 0 00.5 5.436v5.128a2.25 2.25 0 001.084 1.924l5.25 3.182a2.25 2.25 0 002.332 0l5.25-3.182a2.25 2.25 0 001.084-1.924V5.436a2.25 2.25 0 00-1.084-1.924L9.166.33z" strokewidth="0"></path></g><g id="SVGRepo_tracerCarrier" stroke-linecap="round" stroke-linejoin="round"></g><g id="SVGRepo_iconCarrier"> <style type="text/css"> .linesandangles_een{fill:#48677f;} </style> <path class="linesandangles_een" d="M28.414,24l-3-3l2.293-2.293l-1.414-1.414l-2.236,2.236l-3.588-4.186L25,11.46V6h-5.46L16,10.13 L12.46,6H7v5.46l4.531,3.884l-3.588,4.186l-2.236-2.236l-1.414,1.414L6.586,21l-3,3L7,27.414l3-3l2.293,2.293l1.414-1.414 l-2.237-2.237L16,19.174l4.53,3.882l-2.237,2.237l1.414,1.414L22,24.414l3,3L28.414,24z M6.414,24L8,22.414L8.586,23L7,24.586 L6.414,24z M9,10.54V8h2.54l3.143,3.667l-1.85,2.159L9,10.54z M20.46,8H23v2.54L10.053,21.638l-0.69-0.69L20.46,8z M18.95,16.645 l3.688,4.302l-0.69,0.69l-4.411-3.781L18.95,16.645z M25,24.586L23.414,23L24,22.414L25.586,24L25,24.586z"></path> </g></svg>